<!--?xml version="1.0" encoding="utf-8"?-->
<!-- Generator: Adobe Illustrator 18.1.1, SVG Export Plug-In . SVG Version: 6.00 Build 0)  -->

<svg version="1.1" id="_x32_" xmlns="http://www.w3.org/2000/svg" xmlns:xlink="http://www.w3.org/1999/xlink" x="0px" y="0px" viewBox="0 0 512 512" style="width: 256px; height: 256px; opacity: 1;" xml:space="preserve">
<style type="text/css">
	.st0{fill:#4B4B4B;}
</style>
<g>
	<path class="st0" d="M256,0C114.625,0,0,114.625,0,256c0,141.374,114.625,256,256,256c141.374,0,256-114.626,256-256
		C512,114.625,397.374,0,256,0z M344.218,255.992v76.922c0,1.078-0.594,2.094-1.515,2.625c-0.954,0.547-2.126,0.516-3.047-0.031
		l-128.844-76.922c-0.156-0.086-0.226-0.25-0.359-0.359v73.531h-42.656V182.422h42.656v71.351c0.133-0.109,0.203-0.266,0.359-0.359
		l128.844-76.922c0.922-0.547,2.094-0.578,3.047-0.016c0.922,0.516,1.515,1.516,1.515,2.626V255.992z" style="fill: rgb(255, 255, 255);"></path>
</g>
</svg>
